<svg width="22" height="22" viewBox="0 0 22 22" fill="none" xmlns="http://www.w3.org/2000/svg">
<path d="M15.125 10.3125C15.125 9.9328 15.4328 9.625 15.8125 9.625H17.1875C17.5672 9.625 17.875 9.9328 17.875 10.3125V11.6875C17.875 12.0672 17.5672 12.375 17.1875 12.375H15.8125C15.4328 12.375 15.125 12.0672 15.125 11.6875V10.3125Z" fill="#94A3B8"/>
<path d="M4.8125 0C5.1922 0 5.5 0.307804 5.5 0.6875V1.375H16.5V0.6875C16.5 0.307804 16.8078 0 17.1875 0C17.5672 0 17.875 0.307804 17.875 0.6875V1.375H19.25C20.7688 1.375 22 2.60622 22 4.125V19.25C22 20.7688 20.7688 22 19.25 22H2.75C1.23122 22 0 20.7688 0 19.25V4.125C0 2.60622 1.23122 1.375 2.75 1.375H4.125V0.6875C4.125 0.307804 4.4328 0 4.8125 0ZM2.75 2.75C1.99061 2.75 1.375 3.36561 1.375 4.125V19.25C1.375 20.0094 1.99061 20.625 2.75 20.625H19.25C20.0094 20.625 20.625 20.0094 20.625 19.25V4.125C20.625 3.36561 20.0094 2.75 19.25 2.75H2.75Z" fill="#94A3B8"/>
<path d="M3.4375 5.5C3.4375 5.1203 3.7453 4.8125 4.125 4.8125H17.875C18.2547 4.8125 18.5625 5.1203 18.5625 5.5V6.875C18.5625 7.2547 18.2547 7.5625 17.875 7.5625H4.125C3.7453 7.5625 3.4375 7.2547 3.4375 6.875V5.5Z" fill="#94A3B8"/>
</svg>
