<svg width="22" height="22" viewBox="0 0 22 22" fill="none" xmlns="http://www.w3.org/2000/svg">
<path fill-rule="evenodd" clip-rule="evenodd" d="M5.01386 12.5764C5.28235 12.3079 5.71765 12.3079 5.98614 12.5764L11 17.5902L16.0139 12.5764C16.2824 12.3079 16.7176 12.3079 16.9861 12.5764C17.2546 12.8448 17.2546 13.2802 16.9861 13.5486L11.4861 19.0486C11.2177 19.3171 10.7823 19.3171 10.5139 19.0486L5.01386 13.5486C4.74538 13.2802 4.74538 12.8448 5.01386 12.5764Z" fill="#94A3B8"/>
<path fill-rule="evenodd" clip-rule="evenodd" d="M5.01386 9.42364C5.28235 9.69212 5.71765 9.69212 5.98614 9.42364L11 4.40977L16.0139 9.42364C16.2824 9.69212 16.7176 9.69212 16.9861 9.42364C17.2546 9.15515 17.2546 8.71985 16.9861 8.45136L11.4861 2.95136C11.2177 2.68288 10.7823 2.68288 10.5139 2.95136L5.01386 8.45136C4.74538 8.71985 4.74538 9.15515 5.01386 9.42364Z" fill="#94A3B8"/>
</svg>
